<?xml version="1.0" encoding="UTF-8"?>
<!-- Generated by Pixelmator Pro 3.5 -->
<svg width="1503" height="1476" viewBox="0 0 1503 1476" xmlns="http://www.w3.org/2000/svg">
    <path id="Path" fill="none" stroke="currentColor" stroke-width="28" d="M 1288 738 C 1288 390.612915 1006.387085 109 659 109 C 311.612915 109 30 390.612915 30 738 C 30 1085.387085 311.612915 1367 659 1367 C 943.857422 1367 1184.488281 1177.643555 1261.885986 917.937012 C 1278.875732 860.928284 1288 800.529663 1288 738 Z"/>
    <path id="Ellipse-copy" fill="none" stroke="currentColor" stroke-width="28" d="M 1473 738 C 1473 390.612915 1191.387085 109 844 109 C 496.612885 109 215 390.612915 215 738 C 215 1085.387085 496.612885 1367 844 1367 C 1191.387085 1367 1473 1085.387085 1473 738 Z"/>
    <path id="Ellipse" fill="currentColor" fill-rule="evenodd" stroke="none" d="M 816 738.5 C 816 702.877625 787.122375 674 751.5 674 C 715.877625 674 687 702.877625 687 738.5 C 687 774.122375 715.877625 803 751.5 803 C 787.122375 803 816 774.122375 816 738.5 Z"/>
    <path id="Rectangular-Corner" fill="currentColor" fill-rule="evenodd" stroke="none" d="M 1502.594971 0.095093 L 1502.558105 42.34314 L 1502.405029 218.094971 L 1460.156738 218.058105 L 1460.310059 42.306274 L 1073 42 L 1073 0 L 1460.346924 0.058228 L 1502.594971 0.095093 Z"/>
    <path id="Rectangular-Corner-copy" fill="currentColor" fill-rule="evenodd" stroke="none" d="M 0.405029 1475.904907 L 0.441895 1433.65686 L 0.594971 1257.905029 L 42.843262 1257.941895 L 42.689941 1433.693726 L 430 1434 L 430 1476 L 42.653076 1475.941772 L 0.405029 1475.904907 Z"/>
</svg>
